<svg width="392" height="404" viewBox="0 0 392 404" fill="none" xmlns="http://www.w3.org/2000/svg">
<g clip-path="url(#clip0_811_18984)">
<path d="M7.86426 1.5C10.0563 5.99004 14.6649 9.08594 20 9.08594C25.3351 9.08594 29.9437 5.99004 32.1357 1.5H39.8643C42.0563 5.99004 46.6649 9.08594 52 9.08594C57.3351 9.08594 61.9437 5.99004 64.1357 1.5H71.8643C74.0563 5.99004 78.6649 9.08594 84 9.08594C89.3351 9.08594 93.9437 5.99004 96.1357 1.5H103.864C106.056 5.99004 110.665 9.08594 116 9.08594C121.335 9.08594 125.944 5.99004 128.136 1.5H135.864C138.056 5.99004 142.665 9.08594 148 9.08594C153.335 9.08594 157.944 5.99004 160.136 1.5H167.864C170.056 5.99004 174.665 9.08594 180 9.08594C185.335 9.08594 189.944 5.99004 192.136 1.5H199.864C202.056 5.99004 206.665 9.08594 212 9.08594C217.335 9.08594 221.944 5.99004 224.136 1.5H231.864C234.056 5.99004 238.665 9.08594 244 9.08594C249.335 9.08594 253.944 5.99004 256.136 1.5H263.864C266.056 5.99004 270.665 9.08594 276 9.08594C281.335 9.08594 285.944 5.99004 288.136 1.5H295.864C298.056 5.99004 302.665 9.08594 308 9.08594C313.335 9.08594 317.944 5.99004 320.136 1.5H327.864C330.056 5.99004 334.665 9.08594 340 9.08594C345.335 9.08594 349.944 5.99004 352.136 1.5H359.864C362.056 5.99004 366.665 9.08594 372 9.08594C377.335 9.08594 381.944 5.99004 384.136 1.5H391.5V16.5H0.5V1.5H7.86426Z" fill="white" stroke="#E1E3E4"/>
<path d="M392 17V1H383.821C381.768 5.47648 377.247 8.58594 372 8.58594C366.753 8.58594 362.232 5.47648 360.179 1H351.821C349.768 5.47648 345.247 8.58594 340 8.58594C334.753 8.58594 330.232 5.47648 328.179 1H319.821C317.768 5.47648 313.247 8.58594 308 8.58594C302.753 8.58594 298.232 5.47648 296.179 1H287.821C285.768 5.47648 281.247 8.58594 276 8.58594C270.753 8.58594 266.232 5.47648 264.179 1H255.821C253.768 5.47648 249.247 8.58594 244 8.58594C238.753 8.58594 234.232 5.47648 232.179 1H223.821C221.768 5.47648 217.247 8.58594 212 8.58594C206.753 8.58594 202.232 5.47648 200.179 1H191.821C189.768 5.47648 185.247 8.58594 180 8.58594C174.753 8.58594 170.232 5.47648 168.179 1H159.821C157.768 5.47648 153.247 8.58594 148 8.58594C142.753 8.58594 138.232 5.47648 136.179 1H127.821C125.768 5.47648 121.247 8.58594 116 8.58594C110.753 8.58594 106.232 5.47648 104.179 1H95.8213C93.7677 5.47648 89.2474 8.58594 84 8.58594C78.7526 8.58594 74.2323 5.47648 72.1787 1H63.8213C61.7677 5.47648 57.2474 8.58594 52 8.58594C46.7526 8.58594 42.2323 5.47648 40.1787 1H31.8213C29.7677 5.47648 25.2474 8.58594 20 8.58594C14.7526 8.58594 10.2323 5.47648 8.17871 1H0V17" stroke="#E1E3E4"/>
<mask id="path-3-inside-1_811_18984" fill="white">
<path d="M0 16H392V392C392 398.627 386.627 404 380 404H12C5.37258 404 0 398.627 0 392V16Z"/>
</mask>
<path d="M0 16H392V392C392 398.627 386.627 404 380 404H12C5.37258 404 0 398.627 0 392V16Z" fill="white"/>
<path d="M0 16H392H0ZM393 392C393 399.18 387.18 405 380 405H12C4.8203 405 -1 399.18 -1 392H1C1 398.075 5.92487 403 12 403H380C386.075 403 391 398.075 391 392H393ZM12 405C4.8203 405 -1 399.18 -1 392V16H1V392C1 398.075 5.92487 403 12 403V405ZM393 16V392C393 399.18 387.18 405 380 405V403C386.075 403 391 398.075 391 392V16H393Z" fill="#E1E3E4" mask="url(#path-3-inside-1_811_18984)"/>
</g>
<defs>
<clipPath id="clip0_811_18984">
<rect width="392" height="404" fill="white"/>
</clipPath>
</defs>
</svg>
