<svg width="392" height="17" viewBox="0 0 392 17" fill="none" xmlns="http://www.w3.org/2000/svg">
<path d="M392 1H383.821C381.768 5.47648 377.247 8.58594 372 8.58594C366.753 8.58594 362.232 5.47648 360.179 1H351.821C349.768 5.47648 345.247 8.58594 340 8.58594C334.753 8.58594 330.232 5.47648 328.179 1H319.821C317.768 5.47648 313.247 8.58594 308 8.58594C302.753 8.58594 298.232 5.47648 296.179 1H287.821C285.768 5.47648 281.247 8.58594 276 8.58594C270.753 8.58594 266.232 5.47648 264.179 1H255.821C253.768 5.47648 249.247 8.58594 244 8.58594C238.753 8.58594 234.232 5.47648 232.179 1H223.821C221.768 5.47648 217.247 8.58594 212 8.58594C206.753 8.58594 202.232 5.47648 200.179 1H191.821C189.768 5.47648 185.247 8.58594 180 8.58594C174.753 8.58594 170.232 5.47648 168.179 1H159.821C157.768 5.47648 153.247 8.58594 148 8.58594C142.753 8.58594 138.232 5.47648 136.179 1H127.821C125.768 5.47648 121.247 8.58594 116 8.58594C110.753 8.58594 106.232 5.47648 104.179 1H95.8213C93.7677 5.47648 89.2474 8.58594 84 8.58594C78.7526 8.58594 74.2323 5.47648 72.1787 1H63.8213C61.7677 5.47648 57.2474 8.58594 52 8.58594C46.7526 8.58594 42.2323 5.47648 40.1787 1H31.8213C29.7677 5.47648 25.2474 8.58594 20 8.58594C14.7526 8.58594 10.2323 5.47648 8.17871 1H0" stroke="#FEDD6C" stroke-width="1.5"/>
<path d="M7.74023 1C9.52491 5.66068 14.3398 9 20 9C25.6602 9 30.4751 5.66068 32.2598 1H39.7402C41.5249 5.66068 46.3398 9 52 9C57.6602 9 62.4751 5.66068 64.2598 1H71.7402C73.5249 5.66068 78.3398 9 84 9C89.6602 9 94.4751 5.66068 96.2598 1H103.74C105.525 5.66068 110.34 9 116 9C121.66 9 126.475 5.66068 128.26 1H135.74C137.525 5.66068 142.34 9 148 9C153.66 9 158.475 5.66068 160.26 1H167.74C169.525 5.66068 174.34 9 180 9C185.66 9 190.475 5.66068 192.26 1H199.74C201.525 5.66068 206.34 9 212 9C217.66 9 222.475 5.66068 224.26 1H231.74C233.525 5.66068 238.34 9 244 9C249.66 9 254.475 5.66068 256.26 1H263.74C265.525 5.66068 270.34 9 276 9C281.66 9 286.475 5.66068 288.26 1H295.74C297.525 5.66068 302.34 9 308 9C313.66 9 318.475 5.66068 320.26 1H327.74C329.525 5.66068 334.34 9 340 9C345.66 9 350.475 5.66068 352.26 1H359.74C361.525 5.66068 366.34 9 372 9C377.66 9 382.475 5.66068 384.26 1H392V17H0V1H7.74023Z" fill="white"/>
</svg>
